<?xml version="1.0" encoding="iso-8859-1"?>
<!-- Uploaded to: SVG Repo, www.svgrepo.com, Generator: SVG Repo Mixer Tools -->
<!DOCTYPE svg PUBLIC "-//W3C//DTD SVG 1.1//EN" "http://www.w3.org/Graphics/SVG/1.1/DTD/svg11.dtd">
<svg fill="#000000" height="800px" width="800px" version="1.1" id="Capa_1" xmlns="http://www.w3.org/2000/svg" xmlns:xlink="http://www.w3.org/1999/xlink" 
	 viewBox="0 0 382.232 382.232" xml:space="preserve">
<g>
	<path d="M114.752,241.364c21.007-0.031,38.109-17.159,38.109-38.18v-11.372c0-1-0.041-2.009-0.123-3.021h-4.797
		c-9.186,0-12.68-8.54-14.289-13.969c-9.049,4.248-30.23,13.407-56.899,13.944c-0.083,1.021-0.125,2.038-0.125,3.046v11.372
		C76.628,224.205,93.731,241.333,114.752,241.364z"/>
	<path d="M362.232,22.764H20c-11.028,0-20,8.972-20,20v296.704c0,11.028,8.972,20,20,20h342.232c11.028,0,20-8.972,20-20V42.764
		C382.232,31.736,373.261,22.764,362.232,22.764z M107.14,56.014h167.953v40.57H107.14V56.014z M337.972,159.252v28.183h-99.558
		v-28.183H337.972z M174.111,287.135l-0.069,27.647H55.449l-0.07-27.872v-21.638c0-11.496,12.688-15.96,21.951-19.22
		c1.975-0.695,4.195-1.476,6.062-2.26c-0.221-0.243-0.444-0.487-0.668-0.733c-8.391-9.203-17.897-19.63-17.965-38.089l-1.117-14.283
		c-2.539-32.66,14.59-37.937,38.298-45.241c3.576-1.102,7.273-2.241,11.234-3.553c5.163-1.711,10.238-2.579,15.083-2.579
		c10.317,0,19.344,3.862,26.104,11.167c8.694,9.397,12.775,23.675,11.49,40.205l-1.117,14.283
		c-0.068,18.459-9.575,28.886-17.965,38.089c-0.225,0.246-0.447,0.491-0.668,0.733c1.867,0.785,4.087,1.565,6.062,2.26
		c9.264,3.26,21.951,7.724,21.951,19.22L174.111,287.135z M238.414,221.559h99.558v28.183h-99.558V221.559z M340.081,312.049
		h-99.558v-28.183h99.558V312.049z"/>
	<polygon points="114.745,288.839 144.864,256.893 84.626,256.893 	"/>
</g>
</svg>